<?xml version="1.0" encoding="UTF-8"?>
<svg version="1.1" xmlns="http://www.w3.org/2000/svg" width="60" height="60">
<path d="M0 0 C19.8 0 39.6 0 60 0 C60 19.8 60 39.6 60 60 C40.2 60 20.4 60 0 60 C0 40.2 0 20.4 0 0 Z " fill="#FF6B07" transform="translate(0,0)"/>
<path d="M0 0 C19.8 0 39.6 0 60 0 C60 19.8 60 39.6 60 60 C40.2 60 20.4 60 0 60 C0 40.2 0 20.4 0 0 Z M14.28793335 5.29940796 C12.11296302 8.17124696 12.55302003 11.56444607 12.56640625 15.02734375 C12.5611644 15.81266983 12.55592255 16.59799591 12.55052185 17.40711975 C12.54410178 19.0672182 12.5454385 20.72736215 12.55395508 22.38745117 C12.56245859 24.92514275 12.53371765 27.46057814 12.50195312 29.99804688 C12.50034081 31.61197849 12.50091923 33.22591409 12.50390625 34.83984375 C12.49267227 35.5972435 12.48143829 36.35464325 12.46986389 37.13499451 C12.51332055 40.4275538 12.78558629 42.65053663 14.52099609 45.47900391 C18.00114452 47.61425353 21.19892758 47.55484787 25.16015625 47.49609375 C25.94643906 47.49754898 26.73272186 47.49900421 27.54283142 47.50050354 C29.20119949 47.49884683 30.85958329 47.48731089 32.51782227 47.46655273 C35.0574661 47.43755747 37.59502692 47.44595503 40.13476562 47.45898438 C41.74740598 47.45274784 43.36003975 47.44435755 44.97265625 47.43359375 C45.73208023 47.43652939 46.49150421 47.43946503 47.27394104 47.44248962 C51.24915221 47.44224104 51.24915221 47.44224104 54.70059204 45.71206665 C56.96349631 42.73052194 56.40420022 39.06121613 56.36328125 35.46484375 C56.36377975 34.63038223 56.36427826 33.79592072 56.36479187 32.93617249 C56.3624526 31.17348853 56.3527327 29.41080116 56.33618164 27.64819336 C56.3125585 24.94419646 56.31562533 22.24118343 56.32226562 19.53710938 C56.31668988 17.82551493 56.30958065 16.11392465 56.30078125 14.40234375 C56.30169266 13.59087387 56.30260406 12.77940399 56.30354309 11.94334412 C56.42661203 7.50072389 56.42661203 7.50072389 54 4 C51.16634392 3.78780117 48.43291979 3.69603431 45.59765625 3.69921875 C44.76415146 3.69493362 43.93064667 3.6906485 43.07188416 3.68623352 C41.3074535 3.68048565 39.54299915 3.67999332 37.77856445 3.68432617 C35.07657467 3.68748355 32.37568222 3.66404255 29.67382812 3.63867188 C27.96093888 3.63639869 26.24804669 3.63569547 24.53515625 3.63671875 C23.32098778 3.62290413 23.32098778 3.62290413 22.08229065 3.60881042 C17.91636255 3.53705085 17.91636255 3.53705085 14.28793335 5.29940796 Z " fill="#FFFCFA" transform="translate(0,0)"/>
<path d="M0 0 C1.25586914 -0.00386719 1.25586914 -0.00386719 2.53710938 -0.0078125 C3.41302734 -0.00007812 4.28894531 0.00765625 5.19140625 0.015625 C6.06345703 0.00789062 6.93550781 0.00015625 7.83398438 -0.0078125 C8.67251953 -0.00523438 9.51105469 -0.00265625 10.375 0 C11.14255615 0.00225586 11.9101123 0.00451172 12.70092773 0.00683594 C14.75390625 0.265625 14.75390625 0.265625 17.75390625 2.265625 C18.1262207 4.296875 18.1262207 4.296875 18.1171875 6.765625 C18.11654297 7.6525 18.11589844 8.539375 18.11523438 9.453125 C18.09912109 10.38125 18.08300781 11.309375 18.06640625 12.265625 C18.07124023 13.6578125 18.07124023 13.6578125 18.07617188 15.078125 C18.02084764 21.99868361 18.02084764 21.99868361 15.75390625 24.265625 C13.59912109 24.49267578 13.59912109 24.49267578 10.96484375 24.4609375 C10.02382813 24.45449219 9.0828125 24.44804688 8.11328125 24.44140625 C7.1284375 24.42464844 6.14359375 24.40789063 5.12890625 24.390625 C4.13632812 24.38160156 3.14375 24.37257813 2.12109375 24.36328125 C-0.33487509 24.33966616 -2.79036543 24.30673299 -5.24609375 24.265625 C-7.07280572 20.61220106 -6.43080097 16.28723341 -6.43359375 12.265625 C-6.44583984 11.3375 -6.45808594 10.409375 -6.47070312 9.453125 C-6.47263672 8.56625 -6.47457031 7.679375 -6.4765625 6.765625 C-6.48067139 5.9509375 -6.48478027 5.13625 -6.48901367 4.296875 C-5.99490223 0.16520949 -3.5800126 0.0105372 0 0 Z " fill="#FFFCFB" transform="translate(29.24609375,12.734375)"/>
<path d="M0 0 C2.05078125 0.03255208 4.1015625 0.06510417 6.15234375 0.09765625 C6.25 6.25 6.25 6.25 6.15234375 8.09765625 C5.15234375 9.09765625 5.15234375 9.09765625 1.65234375 9.22265625 C-1.84765625 9.09765625 -1.84765625 9.09765625 -2.84765625 8.09765625 C-2.97265625 4.59765625 -2.97265625 4.59765625 -2.84765625 1.09765625 C-1.84765625 0.09765625 -1.84765625 0.09765625 0 0 Z " fill="#FF6801" transform="translate(6.84765625,46.90234375)"/>
</svg>
